<svg width="10" height="8" viewBox="0 0 10 8" fill="none" xmlns="http://www.w3.org/2000/svg">
  <path d="M8.44558 0.255056C8.61838 0.089653 8.84834 -0.00178848 9.08693 2.65103e-05C9.32551 0.0018415 9.55407 0.0967713 9.72436 0.264784C9.89466 0.432797 9.99337 0.660752 9.99968 0.900549C10.006 1.14035 9.91939 1.37323 9.75816 1.55005L4.86357 7.70436C4.7794 7.79551 4.67782 7.86865 4.5649 7.91923C4.45198 7.96982 4.33003 7.99679 4.20618 7.99858C4.08232 8.00037 3.95906 7.97695 3.84405 7.92973C3.72904 7.88251 3.62459 7.81243 3.53713 7.72365L0.234011 4.36047C0.146816 4.27182 0.0781303 4.16681 0.0315904 4.05133C-0.0149495 3.93585 -0.038426 3.81217 -0.0374431 3.68759C-0.0364601 3.56302 -0.0110372 3.43998 0.0373022 3.32569C0.0856417 3.21139 0.158939 3.10811 0.252814 3.02187C0.34669 2.93563 0.45928 2.86811 0.58381 2.8233C0.708341 2.77849 0.842345 2.75727 0.97782 2.76086C1.11329 2.76444 1.24754 2.79277 1.37243 2.84414C1.49733 2.89551 1.61039 2.9689 1.70481 3.05977L4.10407 5.49741L8.39174 0.302584C8.40884 0.285876 8.42679 0.27003 8.44558 0.255056Z" fill="#F4F4FD"/>
</svg>